<svg width="171" height="171" viewBox="0 0 171 171" fill="none" xmlns="http://www.w3.org/2000/svg">
<path d="M170.403 85.2015C170.403 132.257 132.257 170.403 85.2015 170.403C38.146 170.403 0 132.257 0 85.2015C0 38.146 38.146 0 85.2015 0C132.257 0 170.403 38.146 170.403 85.2015ZM29.8902 85.2015C29.8902 115.749 54.6539 140.513 85.2015 140.513C115.749 140.513 140.513 115.749 140.513 85.2015C140.513 54.6539 115.749 29.8902 85.2015 29.8902C54.6539 29.8902 29.8902 54.6539 29.8902 85.2015Z" fill="#F4F4F4"/>
<path d="M85.2015 3.6256C85.2015 1.62323 86.8257 -0.00805152 88.8262 0.0771165C104.407 0.740409 119.532 5.66948 132.537 14.359C146.548 23.7211 157.469 37.0278 163.917 52.5963C170.366 68.1648 172.053 85.296 168.766 101.823C165.478 118.351 157.364 133.532 145.448 145.448C133.532 157.364 118.351 165.478 101.823 168.766C85.296 172.053 68.1648 170.366 52.5963 163.917C37.0278 157.469 23.7211 146.548 14.359 132.537C5.66947 119.532 0.740408 104.407 0.0771164 88.8262C-0.00805157 86.8257 1.62323 85.2015 3.6256 85.2015L26.2646 85.2015C28.267 85.2015 29.8778 86.8266 30.009 88.8247C30.6434 98.4897 33.8071 107.842 39.2118 115.931C45.2895 125.027 53.928 132.116 64.0348 136.302C74.1416 140.489 85.2628 141.584 95.9922 139.45C106.722 137.316 116.577 132.048 124.312 124.312C132.048 116.577 137.316 106.722 139.45 95.9922C141.584 85.2629 140.489 74.1416 136.302 64.0348C132.116 53.928 125.027 45.2895 115.931 39.2118C107.842 33.8071 98.4897 30.6434 88.8247 30.009C86.8266 29.8778 85.2015 28.267 85.2015 26.2646L85.2015 3.6256Z" fill="#8992FA"/>
<path d="M77.3312 88.0203C77.3312 88.7339 77.1646 89.3354 76.8312 89.825C76.4979 90.3094 76.0396 90.6766 75.4562 90.9266C74.8781 91.1714 74.2219 91.2938 73.4875 91.2938C72.7531 91.2938 72.0943 91.1714 71.5109 90.9266C70.9276 90.6766 70.4667 90.3094 70.1281 89.825C69.7896 89.3354 69.6203 88.7339 69.6203 88.0203C69.6203 87.5412 69.7167 87.1089 69.9094 86.7234C70.1021 86.3328 70.3703 85.9995 70.7141 85.7234C71.063 85.4422 71.4719 85.2287 71.9406 85.0828C72.4094 84.9318 72.9198 84.8563 73.4719 84.8563C74.2114 84.8563 74.8729 84.9865 75.4562 85.2469C76.0396 85.5073 76.4979 85.8745 76.8312 86.3484C77.1646 86.8224 77.3312 87.3797 77.3312 88.0203ZM75.0656 87.8719C75.0656 87.5229 74.9979 87.2234 74.8625 86.9734C74.7323 86.7182 74.5474 86.5229 74.3078 86.3875C74.0682 86.2521 73.7896 86.1844 73.4719 86.1844C73.1542 86.1844 72.8755 86.2521 72.6359 86.3875C72.3963 86.5229 72.2088 86.7182 72.0734 86.9734C71.9432 87.2234 71.8781 87.5229 71.8781 87.8719C71.8781 88.2156 71.9432 88.5125 72.0734 88.7625C72.2088 89.0125 72.3963 89.2052 72.6359 89.3406C72.8807 89.4708 73.1646 89.5359 73.4875 89.5359C73.8104 89.5359 74.0891 89.4708 74.3234 89.3406C74.563 89.2052 74.7453 89.0125 74.8703 88.7625C75.0005 88.5125 75.0656 88.2156 75.0656 87.8719ZM77.0891 82.7781C77.0891 83.3563 76.9354 83.8693 76.6281 84.3172C76.3208 84.7599 75.8937 85.1063 75.3469 85.3563C74.8052 85.6063 74.1854 85.7313 73.4875 85.7313C72.7844 85.7313 72.1594 85.6063 71.6125 85.3563C71.0656 85.1063 70.6385 84.7599 70.3312 84.3172C70.0239 83.8693 69.8703 83.3563 69.8703 82.7781C69.8703 82.0906 70.0239 81.5125 70.3312 81.0438C70.6437 80.5698 71.0708 80.2104 71.6125 79.9656C72.1594 79.7208 72.7792 79.5984 73.4719 79.5984C74.175 79.5984 74.7974 79.7208 75.3391 79.9656C75.8859 80.2104 76.313 80.5698 76.6203 81.0438C76.9328 81.5125 77.0891 82.0906 77.0891 82.7781ZM74.8391 82.8797C74.8391 82.5724 74.7844 82.3068 74.675 82.0828C74.5656 81.8537 74.4094 81.6766 74.2062 81.5516C74.0083 81.4266 73.7635 81.3641 73.4719 81.3641C73.1906 81.3641 72.9484 81.424 72.7453 81.5438C72.5474 81.6636 72.3937 81.838 72.2844 82.0672C72.1802 82.2912 72.1281 82.562 72.1281 82.8797C72.1281 83.187 72.1802 83.4578 72.2844 83.6922C72.3937 83.9214 72.55 84.1011 72.7531 84.2313C72.9562 84.3615 73.201 84.4266 73.4875 84.4266C73.7739 84.4266 74.0161 84.3615 74.2141 84.2313C74.4172 84.1011 74.5708 83.9214 74.675 83.6922C74.7844 83.4578 74.8391 83.187 74.8391 82.8797ZM86.5109 84.45V86.4188C86.5109 87.2729 86.4198 88.0099 86.2375 88.6297C86.0552 89.2443 85.7922 89.7495 85.4484 90.1453C85.1099 90.5359 84.7062 90.825 84.2375 91.0125C83.7687 91.2 83.2479 91.2938 82.675 91.2938C82.2167 91.2938 81.7896 91.2365 81.3937 91.1219C80.9979 91.0021 80.6411 90.8172 80.3234 90.5672C80.0109 90.3172 79.7401 90.0021 79.5109 89.6219C79.287 89.2365 79.1151 88.7781 78.9953 88.2469C78.8755 87.7156 78.8156 87.1063 78.8156 86.4188V84.45C78.8156 83.5958 78.9068 82.8641 79.0891 82.2547C79.2766 81.6401 79.5396 81.1375 79.8781 80.7469C80.2219 80.3563 80.6281 80.0698 81.0969 79.8875C81.5656 79.7 82.0864 79.6063 82.6594 79.6063C83.1177 79.6063 83.5422 79.6662 83.9328 79.7859C84.3286 79.9005 84.6854 80.0802 85.0031 80.325C85.3208 80.5698 85.5917 80.8849 85.8156 81.2703C86.0396 81.6505 86.2114 82.1063 86.3312 82.6375C86.451 83.1636 86.5109 83.7677 86.5109 84.45ZM84.2531 86.7156V84.1453C84.2531 83.7339 84.2297 83.3745 84.1828 83.0672C84.1411 82.7599 84.076 82.4995 83.9875 82.2859C83.8989 82.0672 83.7896 81.8901 83.6594 81.7547C83.5292 81.6193 83.3807 81.5203 83.2141 81.4578C83.0474 81.3953 82.8625 81.3641 82.6594 81.3641C82.4042 81.3641 82.1776 81.4136 81.9797 81.5125C81.787 81.6115 81.6229 81.7703 81.4875 81.9891C81.3521 82.2026 81.2479 82.4891 81.175 82.8484C81.1073 83.2026 81.0734 83.6349 81.0734 84.1453V86.7156C81.0734 87.1271 81.0943 87.4891 81.1359 87.8016C81.1828 88.1141 81.2505 88.3823 81.3391 88.6063C81.4328 88.825 81.5422 89.0047 81.6672 89.1453C81.7974 89.2807 81.9458 89.3797 82.1125 89.4422C82.2844 89.5047 82.4719 89.5359 82.675 89.5359C82.925 89.5359 83.1463 89.4865 83.3391 89.3875C83.537 89.2833 83.7036 89.1219 83.8391 88.9031C83.9797 88.6792 84.0838 88.3875 84.1516 88.0281C84.2193 87.6688 84.2531 87.2313 84.2531 86.7156ZM88.0109 82.5516V81.95C88.0109 81.5177 88.1047 81.1245 88.2922 80.7703C88.4797 80.4162 88.7557 80.1323 89.1203 79.9188C89.4849 79.7052 89.9328 79.5984 90.4641 79.5984C91.0109 79.5984 91.4667 79.7052 91.8312 79.9188C92.201 80.1323 92.4771 80.4162 92.6594 80.7703C92.8469 81.1245 92.9406 81.5177 92.9406 81.95V82.5516C92.9406 82.9734 92.8469 83.3615 92.6594 83.7156C92.4771 84.0698 92.2036 84.3537 91.8391 84.5672C91.4745 84.7807 91.0239 84.8875 90.4875 84.8875C89.9458 84.8875 89.4901 84.7807 89.1203 84.5672C88.7557 84.3537 88.4797 84.0698 88.2922 83.7156C88.1047 83.3615 88.0109 82.9734 88.0109 82.5516ZM89.5031 81.95V82.5516C89.5031 82.7339 89.537 82.9083 89.6047 83.075C89.6776 83.2365 89.787 83.3693 89.9328 83.4734C90.0838 83.5724 90.2661 83.6219 90.4797 83.6219C90.7036 83.6219 90.8859 83.5724 91.0266 83.4734C91.1672 83.3693 91.2713 83.2365 91.3391 83.075C91.4068 82.9083 91.4406 82.7339 91.4406 82.5516V81.95C91.4406 81.7573 91.4042 81.5802 91.3312 81.4188C91.2635 81.2521 91.1568 81.1193 91.0109 81.0203C90.8703 80.9162 90.688 80.8641 90.4641 80.8641C90.2557 80.8641 90.0786 80.9162 89.9328 81.0203C89.787 81.1193 89.6776 81.2521 89.6047 81.4188C89.537 81.5802 89.5031 81.7573 89.5031 81.95ZM93.4484 88.95V88.3484C93.4484 87.9214 93.5422 87.5307 93.7297 87.1766C93.9224 86.8224 94.201 86.5386 94.5656 86.325C94.9354 86.1115 95.3885 86.0047 95.925 86.0047C96.4667 86.0047 96.9198 86.1115 97.2844 86.325C97.6489 86.5386 97.925 86.8224 98.1125 87.1766C98.3 87.5307 98.3937 87.9214 98.3937 88.3484V88.95C98.3937 89.3771 98.3 89.7677 98.1125 90.1219C97.9302 90.4761 97.6568 90.7599 97.2922 90.9734C96.9276 91.187 96.4771 91.2938 95.9406 91.2938C95.3989 91.2938 94.9432 91.187 94.5734 90.9734C94.2036 90.7599 93.9224 90.4761 93.7297 90.1219C93.5422 89.7677 93.4484 89.3771 93.4484 88.95ZM94.9484 88.3484V88.95C94.9484 89.1375 94.9901 89.3146 95.0734 89.4813C95.1568 89.6479 95.2713 89.7807 95.4172 89.8797C95.5682 89.9787 95.7427 90.0281 95.9406 90.0281C96.1906 90.0281 96.3859 89.9787 96.5266 89.8797C96.6672 89.7807 96.7635 89.6479 96.8156 89.4813C96.8729 89.3146 96.9016 89.1375 96.9016 88.95V88.3484C96.9016 88.1609 96.8651 87.9865 96.7922 87.825C96.7193 87.6583 96.6099 87.5255 96.4641 87.4266C96.3234 87.3224 96.1437 87.2703 95.925 87.2703C95.7062 87.2703 95.5239 87.3224 95.3781 87.4266C95.2375 87.5255 95.1307 87.6583 95.0578 87.825C94.9849 87.9865 94.9484 88.1609 94.9484 88.3484ZM96.4797 81.3875L90.925 90.2781L89.8312 89.7L95.3859 80.8094L96.4797 81.3875Z" fill="#0B0F18"/>
</svg>
