<svg width="184" height="176" viewBox="0 0 184 176" fill="none" xmlns="http://www.w3.org/2000/svg">
<path d="M10.4328 93.3159C10.4328 82.5838 12.5467 71.9567 16.6537 62.0415C20.7607 52.1263 26.7804 43.1172 34.3692 35.5284C41.9579 27.9396 50.9671 21.9199 60.8823 17.8129C70.7975 13.7059 81.4246 11.592 92.1567 11.592C102.889 11.592 113.516 13.7059 123.431 17.8129C133.346 21.9199 142.355 27.9397 149.944 35.5284C157.533 43.1172 163.553 52.1264 167.66 62.0416C171.767 71.9568 173.881 82.5838 173.881 93.3159L145.21 93.3159C145.21 86.3488 143.838 79.4499 141.172 73.0132C138.506 66.5764 134.598 60.7278 129.671 55.8013C124.745 50.8748 118.896 46.9669 112.459 44.3007C106.023 41.6345 99.1238 40.2622 92.1567 40.2622C85.1896 40.2622 78.2907 41.6345 71.8539 44.3007C65.4171 46.9669 59.5686 50.8748 54.6421 55.8013C49.7156 60.7278 45.8077 66.5764 43.1415 73.0131C40.4753 79.4499 39.103 86.3488 39.103 93.3159L10.4328 93.3159Z" fill="#F4F4F4"/>
<path d="M84.7407 86.0669C84.7407 86.7695 84.577 87.3665 84.2494 87.8578C83.9272 88.3438 83.4887 88.7136 82.934 88.9672C82.3846 89.2208 81.7639 89.3476 81.0718 89.3476C80.3798 89.3476 79.7564 89.2208 79.2017 88.9672C78.647 88.7136 78.2085 88.3438 77.8863 87.8578C77.564 87.3665 77.4029 86.7695 77.4029 86.0669C77.4029 85.6073 77.4901 85.1873 77.6644 84.807C77.844 84.4213 78.0949 84.0859 78.4172 83.8006C78.7447 83.5153 79.1304 83.2961 79.5741 83.1429C80.0232 82.9844 80.5171 82.9051 81.056 82.9051C81.7639 82.9051 82.3952 83.0425 82.9499 83.3172C83.5046 83.5866 83.9404 83.9591 84.2574 84.4345C84.5796 84.91 84.7407 85.4541 84.7407 86.0669ZM83.2668 86.0352C83.2668 85.6073 83.1744 85.2296 82.9895 84.9021C82.8046 84.5692 82.5457 84.3104 82.2129 84.1255C81.8801 83.9406 81.4944 83.8481 81.056 83.8481C80.6069 83.8481 80.2186 83.9406 79.8911 84.1255C79.5688 84.3104 79.3179 84.5692 79.1383 84.9021C78.9587 85.2296 78.8689 85.6073 78.8689 86.0352C78.8689 86.479 78.956 86.8593 79.1304 87.1763C79.31 87.488 79.5636 87.7284 79.8911 87.8974C80.2239 88.0612 80.6175 88.1431 81.0718 88.1431C81.5261 88.1431 81.9171 88.0612 82.2446 87.8974C82.5721 87.7284 82.8231 87.488 82.9974 87.1763C83.177 86.8593 83.2668 86.479 83.2668 86.0352ZM84.4713 80.6547C84.4713 81.2146 84.3234 81.7191 84.0276 82.1682C83.7317 82.6172 83.3276 82.9712 82.8151 83.23C82.3027 83.4889 81.7216 83.6183 81.0718 83.6183C80.4115 83.6183 79.8224 83.4889 79.3047 83.23C78.7923 82.9712 78.3908 82.6172 78.1002 82.1682C77.8097 81.7191 77.6644 81.2146 77.6644 80.6547C77.6644 79.9837 77.8097 79.4132 78.1002 78.943C78.3961 78.4729 78.8002 78.1136 79.3126 77.8653C79.8251 77.617 80.4088 77.4929 81.0639 77.4929C81.7242 77.4929 82.3106 77.617 82.8231 77.8653C83.3355 78.1136 83.737 78.4729 84.0276 78.943C84.3234 79.4132 84.4713 79.9837 84.4713 80.6547ZM83.0053 80.6784C83.0053 80.2928 82.9234 79.952 82.7597 79.6562C82.5959 79.3604 82.3687 79.1279 82.0782 78.9589C81.7876 78.7845 81.4495 78.6974 81.0639 78.6974C80.6782 78.6974 80.3401 78.7793 80.0496 78.943C79.7643 79.1015 79.5398 79.3287 79.376 79.6245C79.2175 79.9203 79.1383 80.2717 79.1383 80.6784C79.1383 81.0746 79.2175 81.4207 79.376 81.7165C79.5398 82.0123 79.767 82.2421 80.0575 82.4059C80.3481 82.5697 80.6862 82.6516 81.0718 82.6516C81.4575 82.6516 81.7929 82.5697 82.0782 82.4059C82.3687 82.2421 82.5959 82.0123 82.7597 81.7165C82.9234 81.4207 83.0053 81.0746 83.0053 80.6784ZM88.4493 83.6976L87.2765 83.3964L87.855 77.6514H93.7744V79.0064H89.0991L88.7504 82.1444C88.9617 82.0229 89.2285 81.9093 89.5508 81.8037C89.8783 81.698 90.2534 81.6452 90.676 81.6452C91.2096 81.6452 91.6877 81.7376 92.1103 81.9225C92.5329 82.1022 92.8921 82.361 93.188 82.6991C93.4891 83.0372 93.7189 83.444 93.8774 83.9194C94.0359 84.3949 94.1151 84.9258 94.1151 85.5122C94.1151 86.0669 94.0385 86.5767 93.8853 87.0416C93.7374 87.5065 93.5129 87.9133 93.2118 88.2619C92.9106 88.6053 92.5303 88.8721 92.0707 89.0623C91.6163 89.2525 91.0801 89.3476 90.462 89.3476C89.9972 89.3476 89.556 89.2842 89.1387 89.1574C88.7266 89.0253 88.3568 88.8272 88.0293 88.5631C87.707 88.2936 87.4429 87.9608 87.2369 87.5646C87.0361 87.1631 86.9093 86.6929 86.8565 86.1541H88.2512C88.3146 86.5873 88.4414 86.9518 88.6315 87.2476C88.8217 87.5435 89.07 87.768 89.3764 87.9212C89.6881 88.0691 90.05 88.1431 90.462 88.1431C90.8107 88.1431 91.1198 88.0823 91.3892 87.9608C91.6586 87.8393 91.8858 87.665 92.0707 87.4378C92.2556 87.2107 92.3956 86.9359 92.4906 86.6137C92.591 86.2914 92.6412 85.9296 92.6412 85.5281C92.6412 85.1636 92.591 84.8255 92.4906 84.5138C92.3903 84.2021 92.2397 83.93 92.039 83.6976C91.8435 83.4651 91.6031 83.2855 91.3179 83.1587C91.0326 83.0266 90.7051 82.9606 90.3353 82.9606C89.844 82.9606 89.4715 83.0266 89.2179 83.1587C88.9696 83.2908 88.7134 83.4704 88.4493 83.6976ZM95.597 80.4803V79.8702C95.597 79.4317 95.692 79.0328 95.8822 78.6736C96.0724 78.3144 96.3445 78.0265 96.6984 77.8099C97.0524 77.5933 97.4724 77.485 97.9584 77.485C98.455 77.485 98.8776 77.5933 99.2263 77.8099C99.5802 78.0265 99.8523 78.3144 100.042 78.6736C100.233 79.0328 100.328 79.4317 100.328 79.8702V80.4803C100.328 80.9082 100.233 81.3018 100.042 81.661C99.8576 82.0203 99.5881 82.3082 99.2342 82.5248C98.8855 82.7414 98.4655 82.8497 97.9742 82.8497C97.4829 82.8497 97.0577 82.7414 96.6984 82.5248C96.3445 82.3082 96.0724 82.0203 95.8822 81.661C95.692 81.3018 95.597 80.9082 95.597 80.4803ZM96.6984 79.8702V80.4803C96.6984 80.7233 96.7433 80.9531 96.8331 81.1697C96.9282 81.3863 97.0709 81.5633 97.261 81.7007C97.4512 81.8327 97.689 81.8988 97.9742 81.8988C98.2595 81.8988 98.4946 81.8327 98.6795 81.7007C98.8644 81.5633 99.0017 81.3863 99.0915 81.1697C99.1814 80.9531 99.2263 80.7233 99.2263 80.4803V79.8702C99.2263 79.6219 99.1787 79.3894 99.0836 79.1728C98.9938 78.9509 98.8538 78.774 98.6636 78.6419C98.4787 78.5045 98.2437 78.4359 97.9584 78.4359C97.6784 78.4359 97.4433 78.5045 97.2531 78.6419C97.0682 78.774 96.9282 78.9509 96.8331 79.1728C96.7433 79.3894 96.6984 79.6219 96.6984 79.8702ZM101.215 86.9782V86.3601C101.215 85.9269 101.31 85.5307 101.501 85.1715C101.691 84.8122 101.963 84.5243 102.317 84.3077C102.671 84.0911 103.091 83.9828 103.577 83.9828C104.073 83.9828 104.496 84.0911 104.845 84.3077C105.198 84.5243 105.471 84.8122 105.661 85.1715C105.851 85.5307 105.946 85.9269 105.946 86.3601V86.9782C105.946 87.4114 105.851 87.8076 105.661 88.1668C105.476 88.5261 105.206 88.814 104.852 89.0306C104.504 89.2472 104.084 89.3555 103.593 89.3555C103.101 89.3555 102.679 89.2472 102.325 89.0306C101.971 88.814 101.696 88.5261 101.501 88.1668C101.31 87.8076 101.215 87.4114 101.215 86.9782ZM102.317 86.3601V86.9782C102.317 87.2212 102.362 87.4537 102.451 87.6755C102.547 87.8921 102.689 88.0691 102.879 88.2065C103.07 88.3385 103.307 88.4046 103.593 88.4046C103.878 88.4046 104.113 88.3385 104.298 88.2065C104.488 88.0691 104.628 87.8921 104.718 87.6755C104.808 87.4589 104.852 87.2265 104.852 86.9782V86.3601C104.852 86.1118 104.805 85.8794 104.71 85.6628C104.62 85.4462 104.48 85.2719 104.29 85.1398C104.105 85.0024 103.867 84.9338 103.577 84.9338C103.297 84.9338 103.062 85.0024 102.871 85.1398C102.687 85.2719 102.547 85.4462 102.451 85.6628C102.362 85.8794 102.317 86.1118 102.317 86.3601ZM103.941 79.2917L98.307 88.3095L97.4829 87.7865L103.117 78.7687L103.941 79.2917Z" fill="#0B0F18"/>
<circle cx="2" cy="90.0995" r="2" fill="#8992FA"/>
<circle cx="92.4177" cy="2" r="2" fill="#8992FA"/>
<circle cx="181.677" cy="90.0995" r="2" fill="#8992FA"/>
<circle cx="6.63672" cy="64.597" r="2" fill="#8992FA"/>
<circle cx="178.199" cy="64.597" r="2" fill="#8992FA"/>
<circle cx="18.2288" cy="41.413" r="2" fill="#8992FA"/>
<circle cx="166.607" cy="41.413" r="2" fill="#8992FA"/>
<circle cx="30.98" cy="25.1841" r="2" fill="#8992FA"/>
<circle cx="153.856" cy="25.1841" r="2" fill="#8992FA"/>
<circle cx="57.6416" cy="8.9552" r="2" fill="#8992FA"/>
<circle cx="127.194" cy="8.9552" r="2" fill="#8992FA"/>
<path d="M10.4328 93.3159C10.4328 78.3822 14.5247 63.734 22.2641 50.9623C30.0035 38.1907 41.0945 27.7838 54.3324 20.872C67.5704 13.9603 82.4491 10.8079 97.3525 11.7574C112.256 12.7068 126.614 17.7218 138.868 26.2575L122.481 49.7828C114.526 44.2416 105.205 40.9859 95.5297 40.3696C85.8547 39.7532 76.1957 41.7996 67.6019 46.2866C59.008 50.7736 51.808 57.5296 46.7837 65.8207C41.7594 74.1119 39.103 83.6212 39.103 93.3159L10.4328 93.3159Z" fill="#8992FA"/>
</svg>
