<svg width="110" height="134" viewBox="0 0 110 134" fill="none" xmlns="http://www.w3.org/2000/svg">
<path opacity="0.2" d="M-40.2664 121.517C-28.5764 127.921 -15.7396 131.96 -2.48878 133.403C10.762 134.846 24.1674 133.665 36.9618 129.928C49.7562 126.19 61.6891 119.969 72.0792 111.62C82.4694 103.27 91.1133 92.9563 97.5174 81.2664C103.921 69.5764 107.96 56.7396 109.403 43.4888C110.846 30.2379 109.665 16.8326 105.928 4.03823C102.19 -8.75618 95.9691 -20.6891 87.6197 -31.0793C79.2704 -41.4694 68.9563 -50.1133 57.2663 -56.5174L39.9547 -24.9169C47.4948 -20.7862 54.1474 -15.2108 59.5328 -8.5091C64.9182 -1.80738 68.9309 5.88945 71.3417 14.1419C73.7525 22.3944 74.5142 31.041 73.5835 39.5878C72.6527 48.1347 70.0476 56.4146 65.9169 63.9547C61.7862 71.4948 56.2108 78.1474 49.5091 83.5328C42.8074 88.9182 35.1105 92.9309 26.858 95.3417C18.6056 97.7525 9.95904 98.5142 1.41215 97.5835C-7.13473 96.6527 -15.4146 94.0476 -22.9547 89.9169L-40.2664 121.517Z" fill="white"/>
</svg>
