<svg width="132" height="102" viewBox="0 0 132 102" fill="none" xmlns="http://www.w3.org/2000/svg">
<path opacity="0.2" d="M192.99 57.5475C185.762 42.5018 174.935 29.471 161.468 19.6092C148.001 9.74744 132.31 3.35911 115.784 1.0101C99.2583 -1.3389 82.4083 0.423919 66.7267 6.14242C51.0451 11.8609 37.0157 21.3586 25.8814 33.7941C14.7471 46.2297 6.85156 61.2193 2.89406 77.4351C-1.06343 93.651 -0.960681 110.593 3.19321 126.759C7.34711 142.926 15.4239 157.819 26.7082 170.118C37.9926 182.418 52.1361 191.744 67.8859 197.272L79.8187 163.274C69.6599 159.708 60.5372 153.693 53.2588 145.759C45.9803 137.826 40.7707 128.22 38.0914 117.792C35.4121 107.365 35.3458 96.4373 37.8984 85.978C40.451 75.5186 45.5437 65.8502 52.7255 57.8292C59.9072 49.8082 68.9562 43.6821 79.071 39.9936C89.1857 36.3052 100.054 35.1681 110.713 36.6833C121.372 38.1984 131.493 42.3189 140.18 48.6798C148.866 55.0408 155.85 63.4457 160.512 73.1503L192.99 57.5475Z" fill="white"/>
</svg>
