<svg width="1440" height="370" viewBox="0 0 1440 370" fill="none" xmlns="http://www.w3.org/2000/svg">
<rect width="1440" height="370" fill="#EFF0FF"/>
<mask id="mask0_5_6" style="mask-type:alpha" maskUnits="userSpaceOnUse" x="0" y="0" width="1440" height="370">
<rect width="1440" height="370" fill="#EFF0FF"/>
</mask>
<g mask="url(#mask0_5_6)">
<path opacity="0.4" d="M459 444.5C459 383.633 434.821 325.259 391.781 282.219C348.741 239.179 290.367 215 229.5 215C168.633 215 110.259 239.179 67.219 282.219C24.1794 325.259 9.19069e-06 383.633 0 444.5L81.4708 444.5C81.4708 405.24 97.0667 367.588 124.828 339.828C152.588 312.067 190.24 296.471 229.5 296.471C268.76 296.471 306.412 312.067 334.172 339.828C361.933 367.588 377.529 405.24 377.529 444.5H459Z" fill="white"/>
<path opacity="0.4" d="M1205.22 -180.781C1162.18 -137.741 1138 -79.3672 1138 -18.5C1138 42.3672 1162.18 100.741 1205.22 143.781C1248.26 186.821 1306.63 211 1367.5 211C1428.37 211 1486.74 186.821 1529.78 143.781L1472.17 86.1725C1444.41 113.933 1406.76 129.529 1367.5 129.529C1328.24 129.529 1290.59 113.933 1262.83 86.1725C1235.07 58.4116 1219.47 20.7598 1219.47 -18.5C1219.47 -57.7598 1235.07 -95.4116 1262.83 -123.172L1205.22 -180.781Z" fill="white"/>
</g>
</svg>
