<svg width="24" height="23" viewBox="0 0 24 23" fill="#8992FA" xmlns="http://www.w3.org/2000/svg">
<path d="M10.7636 1.4232C11.1528 0.225494 12.8472 0.225494 13.2364 1.4232L14.7126 5.96647C15.0205 6.91412 15.9036 7.55573 16.9 7.55573H21.6771C22.9364 7.55573 23.46 9.16723 22.4412 9.90745L18.5765 12.7153C17.7703 13.301 17.433 14.3392 17.7409 15.2868L19.2171 19.8301C19.6063 21.0278 18.2355 22.0238 17.2166 21.2835L13.3519 18.4756C12.5458 17.89 11.4542 17.89 10.6481 18.4756L6.78336 21.2835C5.76453 22.0238 4.39371 21.0278 4.78287 19.8301L6.25906 15.2868C6.56697 14.3392 6.22966 13.301 5.42354 12.7153L1.5588 9.90745C0.539977 9.16723 1.06358 7.55573 2.32293 7.55573H7.1C8.09642 7.55573 8.97952 6.91412 9.28743 5.96647L10.7636 1.4232Z" stroke="#0B0F18"/>
</svg>
