<svg width="24" height="23" viewBox="0 0 24 23" fill="none" xmlns="http://www.w3.org/2000/svg">
<path d="M10.2881 1.26869C10.8269 -0.389672 13.1731 -0.389668 13.7119 1.26869L15.1881 5.81196C15.4291 6.5536 16.1202 7.05573 16.9 7.05573H21.6771C23.4208 7.05573 24.1458 9.28704 22.7351 10.312L18.8704 13.1199C18.2395 13.5782 17.9755 14.3907 18.2165 15.1323L19.6927 19.6756C20.2315 21.3339 18.3334 22.713 16.9227 21.688L13.058 18.8801C12.4271 18.4218 11.5729 18.4218 10.942 18.8801L7.07725 21.688C5.66656 22.713 3.7685 21.3339 4.30734 19.6756L5.78354 15.1323C6.02451 14.3907 5.76052 13.5782 5.12965 13.1199L1.26491 10.312C-0.145775 9.28703 0.579224 7.05573 2.32293 7.05573H7.1C7.87981 7.05573 8.57093 6.5536 8.8119 5.81196L10.2881 1.26869Z" fill="url(#paint0_angular_172_61)"/>
<defs>
<radialGradient id="paint0_angular_172_61" cx="0" cy="0" r="1" gradientUnits="userSpaceOnUse" gradientTransform="translate(20 -2) rotate(90) scale(30)">
<stop stop-color="#8992FA"/>
<stop offset="1" stop-color="#8992FA" stop-opacity="0"/>
</radialGradient>
</defs>
</svg>
