<svg width="16" height="12" viewBox="0 0 16 12" fill="none" xmlns="http://www.w3.org/2000/svg">
<path d="M15.3846 1.42062C14.8354 1.66154 14.2502 1.82123 13.64 1.89877C14.2677 1.524 14.7468 0.935077 14.972 0.225231C14.3868 0.574154 13.7406 0.820615 13.052 0.958154C12.4963 0.366462 11.7043 0 10.8403 0C9.164 0 7.81446 1.36062 7.81446 3.02862C7.81446 3.26862 7.83477 3.49938 7.88462 3.71908C5.36739 3.59631 3.14 2.38985 1.64369 0.552C1.38246 1.00523 1.22923 1.524 1.22923 2.08246C1.22923 3.13108 1.76923 4.06062 2.57416 4.59877C2.08769 4.58954 1.61046 4.44831 1.20616 4.22585C1.20616 4.23508 1.20616 4.24708 1.20616 4.25908C1.20616 5.73046 2.25569 6.95262 3.632 7.23415C3.38554 7.30154 3.11693 7.33385 2.83816 7.33385C2.64431 7.33385 2.44862 7.32277 2.26493 7.28215C2.65723 8.48123 3.77046 9.36277 5.09416 9.39138C4.064 10.1972 2.756 10.6828 1.34 10.6828C1.09169 10.6828 0.853541 10.6717 0.615387 10.6412C1.95662 11.5062 3.54616 12 5.26031 12C10.832 12 13.8782 7.38462 13.8782 3.384C13.8782 3.25015 13.8735 3.12092 13.8671 2.99262C14.468 2.56615 14.9729 2.03354 15.3846 1.42062Z" fill="#D8D8D8"/>
</svg>
